<svg xmlns="http://www.w3.org/2000/svg" xmlns:xlink="http://www.w3.org/1999/xlink" width="1290" zoomAndPan="magnify" viewBox="0 0 967.5 191.249993" height="255" preserveAspectRatio="xMidYMid meet" version="1.0"><defs><clipPath id="bd0bdb0cd8"><path d="M 3.882812 26 L 141 26 L 141 164 L 3.882812 164 Z M 3.882812 26 " clip-rule="nonzero"/></clipPath></defs><path fill="#000000" d="M 246.953125 56.28125 L 246.953125 68.933594 L 226.128906 68.933594 L 226.128906 134.433594 L 210.453125 134.433594 L 210.453125 68.933594 L 189.625 68.933594 L 189.625 56.28125 Z M 255.480469 103.195312 C 255.480469 96.925781 256.710938 91.363281 259.175781 86.511719 C 261.710938 81.660156 265.109375 77.929688 269.363281 75.316406 C 273.691406 72.703125 278.507812 71.398438 283.808594 71.398438 C 288.433594 71.398438 292.464844 72.332031 295.898438 74.195312 C 299.40625 76.0625 302.207031 78.414062 304.296875 81.25 L 304.296875 72.40625 L 320.085938 72.40625 L 320.085938 134.433594 L 304.296875 134.433594 L 304.296875 125.367188 C 302.28125 128.277344 299.484375 130.703125 295.898438 132.644531 C 292.390625 134.507812 288.324219 135.441406 283.695312 135.441406 C 278.46875 135.441406 273.691406 134.097656 269.363281 131.410156 C 265.109375 128.726562 261.710938 124.957031 259.175781 120.101562 C 256.710938 115.175781 255.480469 109.539062 255.480469 103.195312 Z M 304.296875 103.421875 C 304.296875 99.613281 303.550781 96.367188 302.058594 93.679688 C 300.566406 90.917969 298.550781 88.828125 296.011719 87.410156 C 293.472656 85.914062 290.75 85.167969 287.839844 85.167969 C 284.925781 85.167969 282.238281 85.878906 279.777344 87.296875 C 277.3125 88.714844 275.296875 90.804688 273.730469 93.566406 C 272.238281 96.253906 271.492188 99.464844 271.492188 103.195312 C 271.492188 106.929688 272.238281 110.210938 273.730469 113.050781 C 275.296875 115.8125 277.3125 117.9375 279.777344 119.429688 C 282.3125 120.925781 285 121.671875 287.839844 121.671875 C 290.75 121.671875 293.472656 120.960938 296.011719 119.542969 C 298.550781 118.050781 300.566406 115.960938 302.058594 113.273438 C 303.550781 110.511719 304.296875 107.226562 304.296875 103.421875 Z M 352.1875 51.578125 L 352.1875 134.433594 L 336.515625 134.433594 L 336.515625 51.578125 Z M 384.472656 51.578125 L 384.472656 134.433594 L 368.796875 134.433594 L 368.796875 51.578125 Z M 458.742188 102.078125 C 458.742188 104.316406 458.59375 106.332031 458.292969 108.121094 L 412.949219 108.121094 C 413.320312 112.601562 414.886719 116.109375 417.652344 118.648438 C 420.414062 121.1875 423.808594 122.453125 427.839844 122.453125 C 433.660156 122.453125 437.804688 119.953125 440.269531 114.953125 L 457.175781 114.953125 C 455.382812 120.925781 451.949219 125.851562 446.875 129.730469 C 441.796875 133.539062 435.566406 135.441406 428.175781 135.441406 C 422.203125 135.441406 416.828125 134.136719 412.050781 131.523438 C 407.347656 128.835938 403.65625 125.066406 400.96875 120.214844 C 398.355469 115.363281 397.046875 109.765625 397.046875 103.421875 C 397.046875 97 398.355469 91.363281 400.96875 86.511719 C 403.578125 81.660156 407.238281 77.929688 411.941406 75.316406 C 416.644531 72.703125 422.054688 71.398438 428.175781 71.398438 C 434.074219 71.398438 439.335938 72.667969 443.960938 75.203125 C 448.664062 77.742188 452.285156 81.363281 454.824219 86.066406 C 457.4375 90.691406 458.742188 96.03125 458.742188 102.078125 Z M 442.507812 97.597656 C 442.433594 93.566406 440.976562 90.355469 438.140625 87.96875 C 435.304688 85.503906 431.832031 84.273438 427.726562 84.273438 C 423.847656 84.273438 420.5625 85.46875 417.875 87.855469 C 415.261719 90.171875 413.65625 93.417969 413.058594 97.597656 Z M 486.980469 82.035156 C 488.996094 78.75 491.605469 76.175781 494.816406 74.308594 C 498.101562 72.441406 501.832031 71.507812 506.011719 71.507812 L 506.011719 87.96875 L 501.871094 87.96875 C 496.945312 87.96875 493.210938 89.125 490.675781 91.441406 C 488.210938 93.753906 486.980469 97.785156 486.980469 103.53125 L 486.980469 134.433594 L 471.304688 134.433594 L 471.304688 72.40625 L 486.980469 72.40625 Z M 541.683594 95.246094 C 541.683594 87.558594 543.398438 80.691406 546.832031 74.644531 C 550.34375 68.523438 555.082031 63.785156 561.054688 60.425781 C 567.101562 56.992188 573.855469 55.273438 581.320312 55.273438 C 590.054688 55.273438 597.703125 57.511719 604.273438 61.992188 C 610.839844 66.472656 615.433594 72.667969 618.042969 80.578125 L 600.019531 80.578125 C 598.226562 76.847656 595.6875 74.046875 592.40625 72.179688 C 589.195312 70.316406 585.460938 69.382812 581.207031 69.382812 C 576.652344 69.382812 572.585938 70.464844 569.003906 72.628906 C 565.496094 74.71875 562.734375 77.703125 560.71875 81.585938 C 558.777344 85.46875 557.804688 90.019531 557.804688 95.246094 C 557.804688 100.398438 558.777344 104.949219 560.71875 108.90625 C 562.734375 112.789062 565.496094 115.8125 569.003906 117.976562 C 572.585938 120.066406 576.652344 121.109375 581.207031 121.109375 C 585.460938 121.109375 589.195312 120.179688 592.40625 118.3125 C 595.6875 116.371094 598.226562 113.535156 600.019531 109.800781 L 618.042969 109.800781 C 615.433594 117.789062 610.839844 124.023438 604.273438 128.5 C 597.777344 132.90625 590.128906 135.105469 581.320312 135.105469 C 573.855469 135.105469 567.101562 133.425781 561.054688 130.066406 C 555.082031 126.632812 550.34375 121.894531 546.832031 115.847656 C 543.398438 109.800781 541.683594 102.933594 541.683594 95.246094 Z M 660.097656 135.441406 C 654.125 135.441406 648.75 134.136719 643.972656 131.523438 C 639.195312 128.835938 635.425781 125.066406 632.664062 120.214844 C 629.976562 115.363281 628.632812 109.765625 628.632812 103.421875 C 628.632812 97.074219 630.015625 91.476562 632.777344 86.625 C 635.613281 81.773438 639.457031 78.039062 644.308594 75.429688 C 649.160156 72.742188 654.574219 71.398438 660.546875 71.398438 C 666.515625 71.398438 671.929688 72.742188 676.78125 75.429688 C 681.632812 78.039062 685.4375 81.773438 688.199219 86.625 C 691.039062 91.476562 692.457031 97.074219 692.457031 103.421875 C 692.457031 109.765625 691 115.363281 688.089844 120.214844 C 685.253906 125.066406 681.371094 128.835938 676.445312 131.523438 C 671.59375 134.136719 666.144531 135.441406 660.097656 135.441406 Z M 660.097656 121.78125 C 662.933594 121.78125 665.582031 121.109375 668.046875 119.765625 C 670.585938 118.347656 672.601562 116.257812 674.09375 113.496094 C 675.585938 110.734375 676.332031 107.375 676.332031 103.421875 C 676.332031 97.523438 674.765625 93.007812 671.628906 89.871094 C 668.570312 86.664062 664.800781 85.058594 660.320312 85.058594 C 655.84375 85.058594 652.074219 86.664062 649.011719 89.871094 C 646.027344 93.007812 644.535156 97.523438 644.535156 103.421875 C 644.535156 109.316406 645.988281 113.871094 648.902344 117.082031 C 651.886719 120.214844 655.617188 121.78125 660.097656 121.78125 Z M 739.449219 71.507812 C 746.835938 71.507812 752.804688 73.859375 757.359375 78.5625 C 761.914062 83.191406 764.191406 89.683594 764.191406 98.046875 L 764.191406 134.433594 L 748.515625 134.433594 L 748.515625 100.171875 C 748.515625 95.246094 747.285156 91.476562 744.820312 88.863281 C 742.359375 86.175781 739 84.832031 734.746094 84.832031 C 730.414062 84.832031 726.980469 86.175781 724.445312 88.863281 C 721.980469 91.476562 720.75 95.246094 720.75 100.171875 L 720.75 134.433594 L 705.074219 134.433594 L 705.074219 72.40625 L 720.75 72.40625 L 720.75 80.132812 C 722.839844 77.445312 725.488281 75.355469 728.699219 73.859375 C 731.984375 72.292969 735.566406 71.507812 739.449219 71.507812 Z M 798.464844 85.28125 L 798.464844 115.289062 C 798.464844 117.378906 798.953125 118.910156 799.921875 119.878906 C 800.96875 120.773438 802.683594 121.222656 805.074219 121.222656 L 812.351562 121.222656 L 812.351562 134.433594 L 802.496094 134.433594 C 789.285156 134.433594 782.679688 128.015625 782.679688 115.175781 L 782.679688 85.28125 L 775.289062 85.28125 L 775.289062 72.40625 L 782.679688 72.40625 L 782.679688 57.066406 L 798.464844 57.066406 L 798.464844 72.40625 L 812.351562 72.40625 L 812.351562 85.28125 Z M 840.425781 82.035156 C 842.441406 78.75 845.050781 76.175781 848.261719 74.308594 C 851.546875 72.441406 855.277344 71.507812 859.457031 71.507812 L 859.457031 87.96875 L 855.316406 87.96875 C 850.390625 87.96875 846.65625 89.125 844.121094 91.441406 C 841.65625 93.753906 840.425781 97.785156 840.425781 103.53125 L 840.425781 134.433594 L 824.75 134.433594 L 824.75 72.40625 L 840.425781 72.40625 Z M 898.675781 135.441406 C 892.707031 135.441406 887.332031 134.136719 882.554688 131.523438 C 877.777344 128.835938 874.007812 125.066406 871.246094 120.214844 C 868.558594 115.363281 867.214844 109.765625 867.214844 103.421875 C 867.214844 97.074219 868.59375 91.476562 871.355469 86.625 C 874.195312 81.773438 878.039062 78.039062 882.890625 75.429688 C 887.742188 72.742188 893.152344 71.398438 899.125 71.398438 C 905.097656 71.398438 910.507812 72.742188 915.359375 75.429688 C 920.210938 78.039062 924.019531 81.773438 926.78125 86.625 C 929.617188 91.476562 931.035156 97.074219 931.035156 103.421875 C 931.035156 109.765625 929.578125 115.363281 926.667969 120.214844 C 923.832031 125.066406 919.949219 128.835938 915.023438 131.523438 C 910.171875 134.136719 904.722656 135.441406 898.675781 135.441406 Z M 898.675781 121.78125 C 901.511719 121.78125 904.164062 121.109375 906.625 119.765625 C 909.164062 118.347656 911.179688 116.257812 912.671875 113.496094 C 914.164062 110.734375 914.914062 107.375 914.914062 103.421875 C 914.914062 97.523438 913.34375 93.007812 910.210938 89.871094 C 907.148438 86.664062 903.378906 85.058594 898.902344 85.058594 C 894.421875 85.058594 890.652344 86.664062 887.59375 89.871094 C 884.605469 93.007812 883.113281 97.523438 883.113281 103.421875 C 883.113281 109.316406 884.570312 113.871094 887.480469 117.082031 C 890.464844 120.214844 894.199219 121.78125 898.675781 121.78125 Z M 959.332031 51.578125 L 959.332031 134.433594 L 943.65625 134.433594 L 943.65625 51.578125 Z M 959.332031 51.578125 " fill-opacity="1" fill-rule="nonzero"/><g clip-path="url(#bd0bdb0cd8)"><path fill="#131313" d="M 15.105469 26.945312 L 128.957031 26.945312 C 129.691406 26.945312 130.417969 27.019531 131.140625 27.160156 C 131.859375 27.304688 132.5625 27.515625 133.238281 27.800781 C 133.917969 28.082031 134.5625 28.425781 135.175781 28.832031 C 135.785156 29.242188 136.351562 29.707031 136.871094 30.226562 C 137.390625 30.746094 137.855469 31.3125 138.265625 31.921875 C 138.671875 32.535156 139.019531 33.179688 139.300781 33.859375 C 139.582031 34.539062 139.792969 35.238281 139.9375 35.957031 C 140.078125 36.679688 140.152344 37.40625 140.152344 38.144531 L 140.152344 151.992188 C 140.152344 152.726562 140.078125 153.453125 139.9375 154.175781 C 139.792969 154.898438 139.582031 155.597656 139.300781 156.277344 C 139.019531 156.957031 138.671875 157.601562 138.265625 158.210938 C 137.855469 158.824219 137.390625 159.390625 136.871094 159.910156 C 136.351562 160.429688 135.785156 160.894531 135.175781 161.300781 C 134.5625 161.710938 133.917969 162.054688 133.238281 162.335938 C 132.5625 162.617188 131.859375 162.828125 131.140625 162.972656 C 130.417969 163.117188 129.691406 163.1875 128.957031 163.1875 L 15.105469 163.1875 C 14.371094 163.1875 13.644531 163.117188 12.921875 162.972656 C 12.203125 162.828125 11.5 162.617188 10.820312 162.335938 C 10.144531 162.054688 9.496094 161.710938 8.886719 161.300781 C 8.273438 160.894531 7.710938 160.429688 7.191406 159.910156 C 6.667969 159.390625 6.207031 158.824219 5.796875 158.210938 C 5.390625 157.601562 5.042969 156.957031 4.761719 156.277344 C 4.480469 155.597656 4.269531 154.898438 4.125 154.175781 C 3.980469 153.453125 3.910156 152.726562 3.910156 151.992188 L 3.910156 38.144531 C 3.910156 37.40625 3.980469 36.679688 4.125 35.957031 C 4.269531 35.238281 4.480469 34.539062 4.761719 33.859375 C 5.042969 33.179688 5.390625 32.535156 5.796875 31.921875 C 6.207031 31.3125 6.667969 30.746094 7.191406 30.226562 C 7.710938 29.707031 8.273438 29.242188 8.886719 28.832031 C 9.496094 28.425781 10.144531 28.082031 10.820312 27.800781 C 11.5 27.515625 12.203125 27.304688 12.921875 27.160156 C 13.644531 27.019531 14.371094 26.945312 15.105469 26.945312 Z M 15.105469 26.945312 " fill-opacity="1" fill-rule="nonzero"/></g><path fill="#ffffff" d="M 105.253906 53.613281 C 108.148438 53.613281 109.8125 56.3125 108.351562 58.640625 L 76.234375 109.847656 C 75.46875 111.066406 74.023438 111.835938 72.511719 111.835938 L 47.601562 111.835938 C 44.707031 111.835938 43.042969 109.144531 44.5 106.816406 L 76.503906 55.605469 C 77.265625 54.390625 78.714844 53.613281 80.226562 53.613281 Z M 105.253906 53.613281 " fill-opacity="1" fill-rule="nonzero"/><path fill="#ffffff" d="M 69.210938 59.257812 C 70.796875 56.773438 69.011719 53.515625 66.066406 53.515625 L 36.753906 53.515625 C 34.695312 53.515625 33.023438 55.1875 33.023438 57.246094 L 33.023438 74.691406 C 33.023438 76.753906 34.695312 78.425781 36.753906 78.425781 L 54.917969 78.425781 C 56.191406 78.425781 57.378906 77.773438 58.0625 76.703125 Z M 69.210938 59.257812 " fill-opacity="1" fill-rule="nonzero"/><path fill="#ffffff" d="M 46.359375 122.34375 C 44.289062 119.921875 46.011719 116.191406 49.195312 116.191406 L 107.910156 116.191406 C 109.972656 116.191406 111.640625 117.859375 111.640625 119.921875 L 111.640625 137.226562 C 111.640625 139.289062 109.972656 140.960938 107.910156 140.960938 L 63.980469 140.960938 C 62.890625 140.960938 61.851562 140.484375 61.144531 139.652344 Z M 46.359375 122.34375 " fill-opacity="1" fill-rule="nonzero"/></svg>