<svg width="15" height="12" viewBox="0 0 15 12" fill="none" xmlns="http://www.w3.org/2000/svg">
<path d="M1.78877 5.13039C1.39845 4.74007 0.765614 4.74007 0.375292 5.13039C-0.0150286 5.52071 -0.0150286 6.15355 0.375292 6.54387L1.78877 5.13039ZM5.0317 9.7868L4.32496 10.4935L5.05678 11.2254L5.76264 10.4685L5.0317 9.7868ZM13.7583 1.89481C14.1348 1.49111 14.1127 0.858663 13.709 0.482187C13.3053 0.105711 12.6729 0.127773 12.2964 0.531464L13.7583 1.89481ZM0.375292 6.54387L4.32496 10.4935L5.73843 9.08006L1.78877 5.13039L0.375292 6.54387ZM5.76264 10.4685L13.7583 1.89481L12.2964 0.531464L4.30075 9.10512L5.76264 10.4685Z" fill="white"/>
</svg>
