<svg width="1291" height="225" viewBox="0 0 1291 225" fill="none" xmlns="http://www.w3.org/2000/svg">
<path d="M325.6 60.3V77.25H297.7V165H276.7V77.25H248.8V60.3H325.6ZM337.022 123.15C337.022 114.75 338.672 107.3 341.972 100.8C345.372 94.3 349.922 89.3 355.622 85.8C361.422 82.3 367.872 80.55 374.972 80.55C381.172 80.55 386.572 81.8 391.172 84.3C395.872 86.8 399.622 89.95 402.422 93.75V81.9H423.572V165H402.422V152.85C399.722 156.75 395.972 160 391.172 162.6C386.472 165.1 381.022 166.35 374.822 166.35C367.822 166.35 361.422 164.55 355.622 160.95C349.922 157.35 345.372 152.3 341.972 145.8C338.672 139.2 337.022 131.65 337.022 123.15ZM402.422 123.45C402.422 118.35 401.422 114 399.422 110.4C397.422 106.7 394.722 103.9 391.322 102C387.922 100 384.272 99 380.372 99C376.472 99 372.872 99.95 369.572 101.85C366.272 103.75 363.572 106.55 361.472 110.25C359.472 113.85 358.472 118.15 358.472 123.15C358.472 128.15 359.472 132.55 361.472 136.35C363.572 140.05 366.272 142.9 369.572 144.9C372.972 146.9 376.572 147.9 380.372 147.9C384.272 147.9 387.922 146.95 391.322 145.05C394.722 143.05 397.422 140.25 399.422 136.65C401.422 132.95 402.422 128.55 402.422 123.45ZM466.582 54V165H445.582V54H466.582ZM509.83 54V165H488.83V54H509.83ZM609.329 121.65C609.329 124.65 609.129 127.35 608.729 129.75H547.979C548.479 135.75 550.579 140.45 554.279 143.85C557.979 147.25 562.529 148.95 567.929 148.95C575.729 148.95 581.279 145.6 584.579 138.9H607.229C604.829 146.9 600.229 153.5 593.429 158.7C586.629 163.8 578.279 166.35 568.379 166.35C560.379 166.35 553.179 164.6 546.779 161.1C540.479 157.5 535.529 152.45 531.929 145.95C528.429 139.45 526.679 131.95 526.679 123.45C526.679 114.85 528.429 107.3 531.929 100.8C535.429 94.3 540.329 89.3 546.629 85.8C552.929 82.3 560.179 80.55 568.379 80.55C576.279 80.55 583.329 82.25 589.529 85.65C595.829 89.05 600.679 93.9 604.079 100.2C607.579 106.4 609.329 113.55 609.329 121.65ZM587.579 115.65C587.479 110.25 585.529 105.95 581.729 102.75C577.929 99.45 573.279 97.8 567.779 97.8C562.579 97.8 558.179 99.4 554.579 102.6C551.079 105.7 548.929 110.05 548.129 115.65H587.579ZM647.157 94.8C649.857 90.4 653.357 86.95 657.657 84.45C662.057 81.95 667.057 80.7 672.657 80.7V102.75H667.107C660.507 102.75 655.507 104.3 652.107 107.4C648.807 110.5 647.157 115.9 647.157 123.6V165H626.157V81.9H647.157V94.8ZM720.443 112.5C720.443 102.2 722.743 93 727.343 84.9C732.043 76.7 738.393 70.35 746.393 65.85C754.493 61.25 763.543 58.95 773.543 58.95C785.243 58.95 795.493 61.95 804.293 67.95C813.093 73.95 819.243 82.25 822.743 92.85H798.593C796.193 87.85 792.793 84.1 788.393 81.6C784.093 79.1 779.093 77.85 773.393 77.85C767.293 77.85 761.843 79.3 757.043 82.2C752.343 85 748.643 89 745.943 94.2C743.343 99.4 742.043 105.5 742.043 112.5C742.043 119.4 743.343 125.5 745.943 130.8C748.643 136 752.343 140.05 757.043 142.95C761.843 145.75 767.293 147.15 773.393 147.15C779.093 147.15 784.093 145.9 788.393 143.4C792.793 140.8 796.193 137 798.593 132H822.743C819.243 142.7 813.093 151.05 804.293 157.05C795.593 162.95 785.343 165.9 773.543 165.9C763.543 165.9 754.493 163.65 746.393 159.15C738.393 154.55 732.043 148.2 727.343 140.1C722.743 132 720.443 122.8 720.443 112.5ZM879.08 166.35C871.08 166.35 863.88 164.6 857.48 161.1C851.08 157.5 846.03 152.45 842.33 145.95C838.73 139.45 836.93 131.95 836.93 123.45C836.93 114.95 838.78 107.45 842.48 100.95C846.28 94.45 851.43 89.45 857.93 85.95C864.43 82.35 871.68 80.55 879.68 80.55C887.68 80.55 894.93 82.35 901.43 85.95C907.93 89.45 913.03 94.45 916.73 100.95C920.53 107.45 922.43 114.95 922.43 123.45C922.43 131.95 920.48 139.45 916.58 145.95C912.78 152.45 907.58 157.5 900.98 161.1C894.48 164.6 887.18 166.35 879.08 166.35ZM879.08 148.05C882.88 148.05 886.43 147.15 889.73 145.35C893.13 143.45 895.83 140.65 897.83 136.95C899.83 133.25 900.83 128.75 900.83 123.45C900.83 115.55 898.73 109.5 894.53 105.3C890.43 101 885.38 98.85 879.38 98.85C873.38 98.85 868.33 101 864.23 105.3C860.23 109.5 858.23 115.55 858.23 123.45C858.23 131.35 860.18 137.45 864.08 141.75C868.08 145.95 873.08 148.05 879.08 148.05ZM985.384 80.7C995.284 80.7 1003.28 83.85 1009.38 90.15C1015.48 96.35 1018.53 105.05 1018.53 116.25V165H997.534V119.1C997.534 112.5 995.884 107.45 992.584 103.95C989.284 100.35 984.784 98.55 979.084 98.55C973.284 98.55 968.684 100.35 965.284 103.95C961.984 107.45 960.334 112.5 960.334 119.1V165H939.334V81.9H960.334V92.25C963.134 88.65 966.684 85.85 970.984 83.85C975.384 81.75 980.184 80.7 985.384 80.7ZM1064.45 99.15V139.35C1064.45 142.15 1065.1 144.2 1066.4 145.5C1067.8 146.7 1070.1 147.3 1073.3 147.3H1083.05V165H1069.85C1052.15 165 1043.3 156.4 1043.3 139.2V99.15H1033.4V81.9H1043.3V61.35H1064.45V81.9H1083.05V99.15H1064.45ZM1120.66 94.8C1123.36 90.4 1126.86 86.95 1131.16 84.45C1135.56 81.95 1140.56 80.7 1146.16 80.7V102.75H1140.61C1134.01 102.75 1129.01 104.3 1125.61 107.4C1122.31 110.5 1120.66 115.9 1120.66 123.6V165H1099.66V81.9H1120.66V94.8ZM1198.7 166.35C1190.7 166.35 1183.5 164.6 1177.1 161.1C1170.7 157.5 1165.65 152.45 1161.95 145.95C1158.35 139.45 1156.55 131.95 1156.55 123.45C1156.55 114.95 1158.4 107.45 1162.1 100.95C1165.9 94.45 1171.05 89.45 1177.55 85.95C1184.05 82.35 1191.3 80.55 1199.3 80.55C1207.3 80.55 1214.55 82.35 1221.05 85.95C1227.55 89.45 1232.65 94.45 1236.35 100.95C1240.15 107.45 1242.05 114.95 1242.05 123.45C1242.05 131.95 1240.1 139.45 1236.2 145.95C1232.4 152.45 1227.2 157.5 1220.6 161.1C1214.1 164.6 1206.8 166.35 1198.7 166.35ZM1198.7 148.05C1202.5 148.05 1206.05 147.15 1209.35 145.35C1212.75 143.45 1215.45 140.65 1217.45 136.95C1219.45 133.25 1220.45 128.75 1220.45 123.45C1220.45 115.55 1218.35 109.5 1214.15 105.3C1210.05 101 1205 98.85 1199 98.85C1193 98.85 1187.95 101 1183.85 105.3C1179.85 109.5 1177.85 115.55 1177.85 123.45C1177.85 131.35 1179.8 137.45 1183.7 141.75C1187.7 145.95 1192.7 148.05 1198.7 148.05ZM1279.96 54V165H1258.96V54H1279.96Z" fill="black"/>
<rect y="21" width="182.52" height="182.52" rx="15" fill="#5550FF"/>
<path d="M135.768 56.7246C139.647 56.7246 141.873 60.3396 139.916 63.4596L96.8892 132.062C95.8676 133.691 93.93 134.727 91.9052 134.727L58.5304 134.727C54.6553 134.727 52.4279 131.118 54.3776 127.999L97.2537 59.3961C98.274 57.7637 100.214 56.7246 102.242 56.7246L135.768 56.7246Z" fill="white"/>
<path d="M87.4802 64.2857C89.6066 60.9575 87.2162 56.5937 83.2668 56.5937L44.0015 56.5937C41.24 56.5937 39.0015 58.8323 39.0015 61.5937L39.0014 84.9644C39.0014 87.7259 41.24 89.9644 44.0014 89.9644L68.3355 89.9644C70.0418 89.9644 71.6303 89.0943 72.549 87.6564L87.4802 64.2857Z" fill="white"/>
<path d="M56.8668 148.804C54.0945 145.559 56.4004 140.557 60.6684 140.557L139.326 140.557C142.088 140.557 144.326 142.795 144.326 145.557L144.326 168.742C144.326 171.503 142.088 173.742 139.326 173.742L80.4767 173.742C79.0143 173.742 77.6252 173.102 76.6752 171.99L56.8668 148.804Z" fill="white"/>
</svg>
