<svg width="1291" height="252" viewBox="0 0 1291 252" fill="none" xmlns="http://www.w3.org/2000/svg">
<path d="M325.6 60.3V77.25H297.7V165H276.7V77.25H248.8V60.3H325.6ZM337.022 123.15C337.022 114.75 338.672 107.3 341.972 100.8C345.372 94.3 349.922 89.3 355.622 85.8C361.422 82.3 367.872 80.55 374.972 80.55C381.172 80.55 386.572 81.8 391.172 84.3C395.872 86.8 399.622 89.95 402.422 93.75V81.9H423.572V165H402.422V152.85C399.722 156.75 395.972 160 391.172 162.6C386.472 165.1 381.022 166.35 374.822 166.35C367.822 166.35 361.422 164.55 355.622 160.95C349.922 157.35 345.372 152.3 341.972 145.8C338.672 139.2 337.022 131.65 337.022 123.15ZM402.422 123.45C402.422 118.35 401.422 114 399.422 110.4C397.422 106.7 394.722 103.9 391.322 102C387.922 100 384.272 99 380.372 99C376.472 99 372.872 99.95 369.572 101.85C366.272 103.75 363.572 106.55 361.472 110.25C359.472 113.85 358.472 118.15 358.472 123.15C358.472 128.15 359.472 132.55 361.472 136.35C363.572 140.05 366.272 142.9 369.572 144.9C372.972 146.9 376.572 147.9 380.372 147.9C384.272 147.9 387.922 146.95 391.322 145.05C394.722 143.05 397.422 140.25 399.422 136.65C401.422 132.95 402.422 128.55 402.422 123.45ZM466.582 54V165H445.582V54H466.582ZM509.83 54V165H488.83V54H509.83ZM609.329 121.65C609.329 124.65 609.129 127.35 608.729 129.75H547.979C548.479 135.75 550.579 140.45 554.279 143.85C557.979 147.25 562.529 148.95 567.929 148.95C575.729 148.95 581.279 145.6 584.579 138.9H607.229C604.829 146.9 600.229 153.5 593.429 158.7C586.629 163.8 578.279 166.35 568.379 166.35C560.379 166.35 553.179 164.6 546.779 161.1C540.479 157.5 535.529 152.45 531.929 145.95C528.429 139.45 526.679 131.95 526.679 123.45C526.679 114.85 528.429 107.3 531.929 100.8C535.429 94.3 540.329 89.3 546.629 85.8C552.929 82.3 560.179 80.55 568.379 80.55C576.279 80.55 583.329 82.25 589.529 85.65C595.829 89.05 600.679 93.9 604.079 100.2C607.579 106.4 609.329 113.55 609.329 121.65ZM587.579 115.65C587.479 110.25 585.529 105.95 581.729 102.75C577.929 99.45 573.279 97.8 567.779 97.8C562.579 97.8 558.179 99.4 554.579 102.6C551.079 105.7 548.929 110.05 548.129 115.65H587.579ZM647.157 94.8C649.857 90.4 653.357 86.95 657.657 84.45C662.057 81.95 667.057 80.7 672.657 80.7V102.75H667.107C660.507 102.75 655.507 104.3 652.107 107.4C648.807 110.5 647.157 115.9 647.157 123.6V165H626.157V81.9H647.157V94.8ZM720.443 112.5C720.443 102.2 722.743 93 727.343 84.9C732.043 76.7 738.393 70.35 746.393 65.85C754.493 61.25 763.543 58.95 773.543 58.95C785.243 58.95 795.493 61.95 804.293 67.95C813.093 73.95 819.243 82.25 822.743 92.85H798.593C796.193 87.85 792.793 84.1 788.393 81.6C784.093 79.1 779.093 77.85 773.393 77.85C767.293 77.85 761.843 79.3 757.043 82.2C752.343 85 748.643 89 745.943 94.2C743.343 99.4 742.043 105.5 742.043 112.5C742.043 119.4 743.343 125.5 745.943 130.8C748.643 136 752.343 140.05 757.043 142.95C761.843 145.75 767.293 147.15 773.393 147.15C779.093 147.15 784.093 145.9 788.393 143.4C792.793 140.8 796.193 137 798.593 132H822.743C819.243 142.7 813.093 151.05 804.293 157.05C795.593 162.95 785.343 165.9 773.543 165.9C763.543 165.9 754.493 163.65 746.393 159.15C738.393 154.55 732.043 148.2 727.343 140.1C722.743 132 720.443 122.8 720.443 112.5ZM879.08 166.35C871.08 166.35 863.88 164.6 857.48 161.1C851.08 157.5 846.03 152.45 842.33 145.95C838.73 139.45 836.93 131.95 836.93 123.45C836.93 114.95 838.78 107.45 842.48 100.95C846.28 94.45 851.43 89.45 857.93 85.95C864.43 82.35 871.68 80.55 879.68 80.55C887.68 80.55 894.93 82.35 901.43 85.95C907.93 89.45 913.03 94.45 916.73 100.95C920.53 107.45 922.43 114.95 922.43 123.45C922.43 131.95 920.48 139.45 916.58 145.95C912.78 152.45 907.58 157.5 900.98 161.1C894.48 164.6 887.18 166.35 879.08 166.35ZM879.08 148.05C882.88 148.05 886.43 147.15 889.73 145.35C893.13 143.45 895.83 140.65 897.83 136.95C899.83 133.25 900.83 128.75 900.83 123.45C900.83 115.55 898.73 109.5 894.53 105.3C890.43 101 885.38 98.85 879.38 98.85C873.38 98.85 868.33 101 864.23 105.3C860.23 109.5 858.23 115.55 858.23 123.45C858.23 131.35 860.18 137.45 864.08 141.75C868.08 145.95 873.08 148.05 879.08 148.05ZM985.384 80.7C995.284 80.7 1003.28 83.85 1009.38 90.15C1015.48 96.35 1018.53 105.05 1018.53 116.25V165H997.534V119.1C997.534 112.5 995.884 107.45 992.584 103.95C989.284 100.35 984.784 98.55 979.084 98.55C973.284 98.55 968.684 100.35 965.284 103.95C961.984 107.45 960.334 112.5 960.334 119.1V165H939.334V81.9H960.334V92.25C963.134 88.65 966.684 85.85 970.984 83.85C975.384 81.75 980.184 80.7 985.384 80.7ZM1064.45 99.15V139.35C1064.45 142.15 1065.1 144.2 1066.4 145.5C1067.8 146.7 1070.1 147.3 1073.3 147.3H1083.05V165H1069.85C1052.15 165 1043.3 156.4 1043.3 139.2V99.15H1033.4V81.9H1043.3V61.35H1064.45V81.9H1083.05V99.15H1064.45ZM1120.66 94.8C1123.36 90.4 1126.86 86.95 1131.16 84.45C1135.56 81.95 1140.56 80.7 1146.16 80.7V102.75H1140.61C1134.01 102.75 1129.01 104.3 1125.61 107.4C1122.31 110.5 1120.66 115.9 1120.66 123.6V165H1099.66V81.9H1120.66V94.8ZM1198.7 166.35C1190.7 166.35 1183.5 164.6 1177.1 161.1C1170.7 157.5 1165.65 152.45 1161.95 145.95C1158.35 139.45 1156.55 131.95 1156.55 123.45C1156.55 114.95 1158.4 107.45 1162.1 100.95C1165.9 94.45 1171.05 89.45 1177.55 85.95C1184.05 82.35 1191.3 80.55 1199.3 80.55C1207.3 80.55 1214.55 82.35 1221.05 85.95C1227.55 89.45 1232.65 94.45 1236.35 100.95C1240.15 107.45 1242.05 114.95 1242.05 123.45C1242.05 131.95 1240.1 139.45 1236.2 145.95C1232.4 152.45 1227.2 157.5 1220.6 161.1C1214.1 164.6 1206.8 166.35 1198.7 166.35ZM1198.7 148.05C1202.5 148.05 1206.05 147.15 1209.35 145.35C1212.75 143.45 1215.45 140.65 1217.45 136.95C1219.45 133.25 1220.45 128.75 1220.45 123.45C1220.45 115.55 1218.35 109.5 1214.15 105.3C1210.05 101 1205 98.85 1199 98.85C1193 98.85 1187.95 101 1183.85 105.3C1179.85 109.5 1177.85 115.55 1177.85 123.45C1177.85 131.35 1179.8 137.45 1183.7 141.75C1187.7 145.95 1192.7 148.05 1198.7 148.05ZM1279.96 54V165H1258.96V54H1279.96Z" fill="black"/>
<path d="M948.152 199.348C949.681 197.323 951.665 195.669 954.104 194.388C956.543 193.107 959.188 192.466 962.04 192.466C966.091 192.466 969.335 193.685 971.774 196.124C974.254 198.563 975.494 201.869 975.494 206.044C975.494 207.243 975.37 208.524 975.122 209.888C974.502 213.319 973.241 216.377 971.34 219.064C969.48 221.751 967.186 223.838 964.458 225.326C961.771 226.814 958.919 227.558 955.902 227.558C952.967 227.558 950.508 226.917 948.524 225.636C946.54 224.355 945.155 222.722 944.37 220.738L943.254 227H937.612L945.734 181.12H951.376L948.152 199.348ZM969.356 209.888C969.521 209.02 969.604 208.069 969.604 207.036C969.604 204.019 968.715 201.663 966.938 199.968C965.161 198.232 962.867 197.364 960.056 197.364C957.989 197.364 955.985 197.881 954.042 198.914C952.099 199.906 950.425 201.373 949.02 203.316C947.656 205.217 946.747 207.429 946.292 209.95C946.127 210.818 946.044 211.769 946.044 212.802C946.044 215.819 946.933 218.217 948.71 219.994C950.529 221.73 952.823 222.598 955.592 222.598C957.7 222.598 959.705 222.102 961.606 221.11C963.549 220.077 965.202 218.609 966.566 216.708C967.971 214.765 968.901 212.492 969.356 209.888ZM988.376 193.024L994.142 220.428L1009.58 193.024H1015.41L986.144 242.996H980.254L989.864 226.628L982.114 193.024H988.376ZM1048.22 227.558C1045.41 227.558 1042.89 227.062 1040.66 226.07C1038.43 225.037 1036.65 223.652 1035.33 221.916C1034.04 220.18 1033.34 218.258 1033.22 216.15H1041.96C1042.12 217.473 1042.77 218.568 1043.88 219.436C1045.04 220.304 1046.46 220.738 1048.16 220.738C1049.81 220.738 1051.09 220.407 1052 219.746C1052.95 219.085 1053.43 218.237 1053.43 217.204C1053.43 216.088 1052.85 215.261 1051.69 214.724C1050.58 214.145 1048.78 213.525 1046.3 212.864C1043.74 212.244 1041.63 211.603 1039.98 210.942C1038.36 210.281 1036.96 209.268 1035.76 207.904C1034.6 206.54 1034.02 204.701 1034.02 202.386C1034.02 200.485 1034.56 198.749 1035.64 197.178C1036.75 195.607 1038.32 194.367 1040.35 193.458C1042.41 192.549 1044.83 192.094 1047.6 192.094C1051.69 192.094 1054.96 193.127 1057.4 195.194C1059.84 197.219 1061.18 199.968 1061.43 203.44H1053.12C1053 202.076 1052.42 201.001 1051.38 200.216C1050.39 199.389 1049.05 198.976 1047.35 198.976C1045.78 198.976 1044.56 199.265 1043.7 199.844C1042.87 200.423 1042.46 201.229 1042.46 202.262C1042.46 203.419 1043.03 204.308 1044.19 204.928C1045.35 205.507 1047.15 206.106 1049.59 206.726C1052.07 207.346 1054.11 207.987 1055.72 208.648C1057.34 209.309 1058.72 210.343 1059.88 211.748C1061.08 213.112 1061.7 214.931 1061.74 217.204C1061.74 219.188 1061.18 220.965 1060.06 222.536C1058.99 224.107 1057.42 225.347 1055.35 226.256C1053.33 227.124 1050.95 227.558 1048.22 227.558ZM1084.73 227.558C1081.43 227.558 1078.45 226.835 1075.81 225.388C1073.16 223.9 1071.07 221.813 1069.54 219.126C1068.06 216.439 1067.31 213.339 1067.31 209.826C1067.31 206.313 1068.08 203.213 1069.61 200.526C1071.18 197.839 1073.31 195.773 1075.99 194.326C1078.68 192.838 1081.68 192.094 1084.98 192.094C1088.29 192.094 1091.29 192.838 1093.97 194.326C1096.66 195.773 1098.77 197.839 1100.3 200.526C1101.87 203.213 1102.65 206.313 1102.65 209.826C1102.65 213.339 1101.85 216.439 1100.23 219.126C1098.66 221.813 1096.51 223.9 1093.79 225.388C1091.1 226.835 1088.08 227.558 1084.73 227.558ZM1084.73 219.994C1086.31 219.994 1087.77 219.622 1089.14 218.878C1090.54 218.093 1091.66 216.935 1092.48 215.406C1093.31 213.877 1093.72 212.017 1093.72 209.826C1093.72 206.561 1092.86 204.06 1091.12 202.324C1089.43 200.547 1087.34 199.658 1084.86 199.658C1082.38 199.658 1080.29 200.547 1078.6 202.324C1076.94 204.06 1076.12 206.561 1076.12 209.826C1076.12 213.091 1076.92 215.613 1078.53 217.39C1080.19 219.126 1082.25 219.994 1084.73 219.994ZM1125.39 199.782H1119.37V227H1110.57V199.782H1106.66V192.652H1110.57V190.916C1110.57 186.7 1111.77 183.6 1114.17 181.616C1116.56 179.632 1120.18 178.702 1125.02 178.826V186.142C1122.91 186.101 1121.44 186.452 1120.61 187.196C1119.79 187.94 1119.37 189.283 1119.37 191.226V192.652H1125.39V199.782ZM1141.74 199.782V216.398C1141.74 217.555 1142.01 218.403 1142.54 218.94C1143.12 219.436 1144.07 219.684 1145.4 219.684H1149.43V227H1143.97C1136.65 227 1133 223.445 1133 216.336V199.782H1128.9V192.652H1133V184.158H1141.74V192.652H1149.43V199.782H1141.74ZM1198.95 192.156C1203.16 192.156 1206.55 193.458 1209.11 196.062C1211.72 198.625 1213.02 202.221 1213.02 206.85V227H1204.34V208.028C1204.34 205.341 1203.66 203.295 1202.29 201.89C1200.93 200.443 1199.07 199.72 1196.71 199.72C1194.36 199.72 1192.48 200.443 1191.07 201.89C1189.71 203.295 1189.03 205.341 1189.03 208.028V227H1180.35V208.028C1180.35 205.341 1179.66 203.295 1178.3 201.89C1176.94 200.443 1175.08 199.72 1172.72 199.72C1170.32 199.72 1168.42 200.443 1167.02 201.89C1165.65 203.295 1164.97 205.341 1164.97 208.028V227H1156.29V192.652H1164.97V196.806C1166.09 195.359 1167.51 194.223 1169.25 193.396C1171.03 192.569 1172.97 192.156 1175.08 192.156C1177.76 192.156 1180.16 192.735 1182.27 193.892C1184.38 195.008 1186.01 196.62 1187.17 198.728C1188.28 196.744 1189.89 195.153 1192 193.954C1194.15 192.755 1196.47 192.156 1198.95 192.156ZM1237.13 227.558C1233.82 227.558 1230.85 226.835 1228.2 225.388C1225.56 223.9 1223.47 221.813 1221.94 219.126C1220.45 216.439 1219.71 213.339 1219.71 209.826C1219.71 206.313 1220.47 203.213 1222 200.526C1223.57 197.839 1225.7 195.773 1228.39 194.326C1231.07 192.838 1234.07 192.094 1237.38 192.094C1240.68 192.094 1243.68 192.838 1246.37 194.326C1249.05 195.773 1251.16 197.839 1252.69 200.526C1254.26 203.213 1255.05 206.313 1255.05 209.826C1255.05 213.339 1254.24 216.439 1252.63 219.126C1251.06 221.813 1248.91 223.9 1246.18 225.388C1243.49 226.835 1240.48 227.558 1237.13 227.558ZM1237.13 219.994C1238.7 219.994 1240.17 219.622 1241.53 218.878C1242.94 218.093 1244.05 216.935 1244.88 215.406C1245.71 213.877 1246.12 212.017 1246.12 209.826C1246.12 206.561 1245.25 204.06 1243.51 202.324C1241.82 200.547 1239.73 199.658 1237.25 199.658C1234.77 199.658 1232.69 200.547 1230.99 202.324C1229.34 204.06 1228.51 206.561 1228.51 209.826C1228.51 213.091 1229.32 215.613 1230.93 217.39C1232.58 219.126 1234.65 219.994 1237.13 219.994ZM1270.71 197.984C1271.83 196.165 1273.28 194.739 1275.05 193.706C1276.87 192.673 1278.94 192.156 1281.25 192.156V201.27H1278.96C1276.23 201.27 1274.17 201.911 1272.76 203.192C1271.4 204.473 1270.71 206.705 1270.71 209.888V227H1262.03V192.652H1270.71V197.984Z" fill="#1E1E1E"/>
<rect y="21" width="182.52" height="182.52" rx="15" fill="#5550FF"/>
<path d="M135.768 56.7246C139.647 56.7246 141.873 60.3396 139.916 63.4596L96.8892 132.062C95.8676 133.691 93.93 134.727 91.9052 134.727L58.5304 134.727C54.6553 134.727 52.4279 131.118 54.3776 127.999L97.2537 59.3961C98.274 57.7637 100.214 56.7246 102.242 56.7246L135.768 56.7246Z" fill="white"/>
<path d="M87.4802 64.2857C89.6066 60.9575 87.2162 56.5937 83.2668 56.5937L44.0015 56.5937C41.24 56.5937 39.0015 58.8323 39.0015 61.5937L39.0014 84.9644C39.0014 87.7259 41.24 89.9644 44.0014 89.9644L68.3355 89.9644C70.0418 89.9644 71.6303 89.0943 72.549 87.6564L87.4802 64.2857Z" fill="white"/>
<path d="M56.8668 148.804C54.0945 145.559 56.4004 140.557 60.6684 140.557L139.326 140.557C142.088 140.557 144.326 142.795 144.326 145.557L144.326 168.742C144.326 171.503 142.088 173.742 139.326 173.742L80.4767 173.742C79.0143 173.742 77.6252 173.102 76.6752 171.99L56.8668 148.804Z" fill="white"/>
</svg>
