<?xml version="1.0" standalone="no"?>
<!DOCTYPE svg PUBLIC "-//W3C//DTD SVG 1.1//EN" "http://www.w3.org/Graphics/SVG/1.1/DTD/svg11.dtd">
<svg xmlns="http://www.w3.org/2000/svg" viewBox="0 0 1390.92 630.04" width="1390.9200439453125" height="630.0399780273438"><defs><style>.cls-1{fill:#fff;}.cls-2{fill:#89d631;}</style></defs><g id="Capa_2" data-name="Capa 2"><g id="Capa_1-2" data-name="Capa 1"><ellipse class="cls-1" cx="306.44" cy="310.1" rx="111.91" ry="111.93" transform="translate(-129.52 307.51) rotate(-45)"/><path class="cls-1" d="M306.44,17.15h0C137.2,17.15,0,154.35,0,323.6H0C0,492.84,137.2,630,306.44,630h0a305.1,305.1,0,0,0,135.24-31.41,73.46,73.46,0,0,1,106.39-86.56A305.07,305.07,0,0,0,612.88,323.6h0C612.88,154.35,475.68,17.15,306.44,17.15ZM278.86,491.64A181.35,181.35,0,0,1,194.52,456v64.64H122.89V310.1h0C122.9,199.68,220.41,112,334,128.57a183.62,183.62,0,1,1-55.16,363.07Z"/><circle class="cls-2" cx="511.53" cy="575.8" r="48.06"/><path class="cls-1" d="M845,205.71c109.18-2.29,201.57,89.33,199.28,195.47C1046.57,507.31,954.18,599.7,845,597.4c-107.66,2.3-200-90.09-197.76-196.22C645,293.52,737.34,204.18,845,205.71Zm.76,73.3c-66.43,0-116.82,53.45-116.82,122.93S779.33,523.34,845,523.34c66.42,0,116.82-53.44,116.82-121.4C961.82,332.46,910.66,279,845.76,279Z"/><path class="cls-1" d="M1146.59,474.48c32.83,34.36,65.66,53.44,105.37,53.44,34.36,0,60.32-14.5,60.32-42,0-22.14-16-31.31-52.69-46.58l-38.17-16c-66.43-27.49-97.74-56.5-97.74-109.19,0-67.19,55.74-108.42,132.09-108.42,54.22,0,97,19.09,129.81,58l-43.53,49.63c-23.67-24.43-55-38.18-87.8-38.18-31.31,0-51.16,12.22-51.16,35.89,0,19.09,13,29,49.63,44.28l35.89,14.51c71,29.78,102.31,60.32,102.31,113,0,35.88-13,64.13-39.7,84.75-26.73,19.85-59.56,29.77-99.26,29.77-64.14,0-117.59-29-151.18-72.53Z"/><path class="cls-1" d="M680,122.83c8.64,9,17.29,14.07,27.74,14.07,9.05,0,15.88-3.82,15.88-11.05,0-5.83-4.22-8.25-13.87-12.27l-10-4.22C682.25,102.12,674,94.48,674,80.61c0-17.69,14.67-28.54,34.77-28.54,14.28,0,25.53,5,34.18,15.28L731.5,80.41a32.16,32.16,0,0,0-23.12-10c-8.24,0-13.47,3.22-13.47,9.45,0,5,3.42,7.64,13.07,11.66l9.45,3.82c18.69,7.84,26.94,15.88,26.94,29.75,0,9.45-3.42,16.89-10.46,22.32-7,5.22-15.68,7.84-26.13,7.84-16.89,0-31-7.64-39.81-19.1Z"/><path class="cls-1" d="M813.25,52.07c28.74-.61,53.07,23.52,52.47,51.46.6,27.94-23.73,52.27-52.47,51.67-28.35.6-52.67-23.73-52.07-51.67C760.58,75.19,784.9,51.66,813.25,52.07Zm.2,19.3c-17.49,0-30.76,14.07-30.76,32.36s13.27,32,30.56,32c17.49,0,30.76-14.08,30.76-32C844,85.44,830.54,71.37,813.45,71.37Z"/><path class="cls-1" d="M928.77,19.1c-12.87,0-19.3,4.42-19.3,17.09V54.28h23.32V72.57H909.47V153H888.36V72.57h0V54.28h0V34.38C888.36,11.26,902,0,929,0"/><path class="cls-1" d="M949.27,54.28V28.35h21.31V54.28h29.35V72.57H970.58V119c0,12.67,6.64,17.09,19.5,17.09,3,0,7.24-.4,13.07-1V153a86.91,86.91,0,0,1-17.49,2.21c-22.72,0-36.39-11.26-36.39-34.38V54.28"/><path class="cls-1" d="M1172.62,153h-21.31V94.28c0-13.87-7.84-22.91-20.51-22.91-12.87,0-21.71,9.24-21.71,21.91V153H1088V94.28c0-13.67-8-22.91-20.7-22.91-12.87,0-21.72,9.24-21.72,22.91V153h-21.11V54.28h19.71v9.25c7-7.24,16.68-11.46,28.54-11.46,13.67,0,24.13,5.83,30,15.48,7.23-9.45,19.5-15.48,33.37-15.48,22.71,0,36.59,15.68,36.59,39.2Z"/><path class="cls-1" d="M1246.52,52.07c28.75-.61,53.07,23.52,52.47,51.46.6,27.94-23.72,52.27-52.47,51.67-28.34.6-52.67-23.73-52.07-51.67C1193.85,75.19,1218.18,51.66,1246.52,52.07Zm.2,19.3c-17.49,0-30.76,14.07-30.76,32.36s13.27,32,30.56,32c17.49,0,30.76-14.08,30.76-32C1277.28,85.44,1263.81,71.37,1246.72,71.37Z"/><path class="cls-1" d="M1377.05,73h-6.43c-16.69,0-28.95,9.86-28.95,27.34V153h-21.11V54.28h19.7V67.14A36.51,36.51,0,0,1,1369,53.27a32.65,32.65,0,0,1,8,1Z"/></g></g></svg>