<svg width="183" height="183" viewBox="0 0 183 183" fill="none" xmlns="http://www.w3.org/2000/svg">
<rect width="182.52" height="182.52" rx="15" fill="#5550FF"/>
<path d="M135.768 35.7246C139.647 35.7246 141.873 39.3396 139.916 42.4596L96.8892 111.062C95.8676 112.691 93.93 113.727 91.9052 113.727L58.5304 113.727C54.6553 113.727 52.4279 110.118 54.3776 106.999L97.2537 38.3961C98.274 36.7637 100.214 35.7246 102.242 35.7246L135.768 35.7246Z" fill="white"/>
<path d="M87.4802 43.2857C89.6066 39.9575 87.2162 35.5937 83.2668 35.5937L44.0015 35.5937C41.24 35.5937 39.0015 37.8323 39.0015 40.5937L39.0014 63.9644C39.0014 66.7259 41.24 68.9644 44.0014 68.9644L68.3355 68.9644C70.0418 68.9644 71.6303 68.0943 72.549 66.6564L87.4802 43.2857Z" fill="white"/>
<path d="M56.8668 127.804C54.0945 124.559 56.4004 119.557 60.6684 119.557L139.326 119.557C142.088 119.557 144.326 121.795 144.326 124.557L144.326 147.742C144.326 150.503 142.088 152.742 139.326 152.742L80.4767 152.742C79.0143 152.742 77.6252 152.102 76.6752 150.99L56.8668 127.804Z" fill="white"/>
</svg>
